# xmcd CD database file
#
# Track frame offsets:
#	150
#	34003
#	66400
#	94835
#	133459
#	139484
#	184473
#	222912
#
# Disc length: 3373 seconds
#
# Revision: 0
# Processed by: cddbd v1.5.2PL0 Copyright (c) Steve Scherf et al.
# Submitted via: CDex 1.51
#
DISCID=870d2b08
DTITLE=James Harry - Dream Keeper
DYEAR=1900
DGENRE=New Age
TTITLE0=Dream keeper pt1
TTITLE1=Secret of the Loch
TTITLE2=Into the deep
TTITLE3=Dream keeper pt2
TTITLE4=Dream keeper pt3
TTITLE5=Night Shade
TTITLE6=From dust til dawn
TTITLE7=Dream keeper pt4
EXTD=
EXTT0=
EXTT1=
EXTT2=
EXTT3=
EXTT4=
EXTT5=
EXTT6=
EXTT7=
PLAYORDER=
